<svg width="16" height="20" viewBox="0 0 16 20" fill="none" xmlns="http://www.w3.org/2000/svg">
<path fill-rule="evenodd" clip-rule="evenodd" d="M10.292 15.593C10.7062 15.593 11.042 15.929 11.042 16.343V16.708C11.042 18.388 9.68021 19.75 8.00001 19.75C6.32001 19.75 4.95801 18.388 4.95801 16.709V16.344C4.95801 15.93 5.29381 15.594 5.70801 15.594C6.12221 15.594 6.45801 15.93 6.45801 16.344V16.709C6.45801 17.56 7.14801 18.25 8.00001 18.25C8.85181 18.25 9.54201 17.56 9.54201 16.708V16.343C9.54201 15.929 9.87781 15.593 10.292 15.593Z" fill="#212121"/>
<path fill-rule="evenodd" clip-rule="evenodd" d="M5.41699 2.833C5.41699 1.407 6.57249 0.25 7.99999 0.25C9.42749 0.25 10.583 1.407 10.583 2.833V3.751C10.583 4.165 10.2472 4.501 9.83299 4.501C9.41879 4.501 9.08299 4.165 9.08299 3.751V2.833C9.08299 2.235 8.59849 1.75 7.99999 1.75C7.40149 1.75 6.91699 2.235 6.91699 2.833V3.751C6.91699 4.165 6.58119 4.501 6.16699 4.501C5.75279 4.501 5.41699 4.165 5.41699 3.751V2.833Z" fill="#212121"/>
<path fill-rule="evenodd" clip-rule="evenodd" d="M7.094 4.40698C5.0061 4.40698 3.313 6.09899 3.313 8.18799V10.985C3.313 11.714 3.0228 12.414 2.5073 12.929L1.8663 13.57C1.6318 13.805 1.5 14.123 1.5 14.454C1.5 15.084 2.0102 15.594 2.64 15.594H13.361C13.9908 15.594 14.501 15.084 14.501 14.454C14.501 14.123 14.3692 13.805 14.1347 13.57L13.4937 12.929C12.9782 12.414 12.688 11.714 12.688 10.985V8.18799C12.688 6.09999 10.9957 4.40698 8.907 4.40698H7.094ZM1.813 8.18799C1.813 5.27099 4.1779 2.90698 7.094 2.90698H8.907C11.8243 2.90698 14.188 5.27199 14.188 8.18799V10.985C14.188 11.316 14.3198 11.634 14.5543 11.869L15.1953 12.51C15.7108 13.025 16.001 13.725 16.001 14.454C16.001 15.912 14.8192 17.094 13.361 17.094H2.64C1.1818 17.094 0 15.912 0 14.454C0 13.725 0.290202 13.025 0.805702 12.51L1.4467 11.869C1.6812 11.634 1.813 11.316 1.813 10.985V8.18799Z" fill="#212121"/>
</svg>
